G75*
%MOIN*%
%OFA0B0*%
%FSLAX25Y25*%
%IPPOS*%
%LPD*%
%AMOC8*
5,1,8,0,0,1.08239X$1,22.5*
%
%ADD10C,0.00000*%
%ADD11R,0.03543X0.02756*%
%ADD12R,0.02756X0.03543*%
%ADD13R,0.07480X0.05512*%
%ADD14R,0.03740X0.01181*%
%ADD15R,0.01181X0.03740*%
D10*
X0001000Y0017069D02*
X0001000Y0212030D01*
X0234701Y0212030D01*
X0234701Y0017069D01*
X0001000Y0017069D01*
D11*
X0196000Y0139510D03*
X0196000Y0144628D03*
X0216000Y0144628D03*
X0216000Y0139510D03*
D12*
X0203559Y0172069D03*
X0198441Y0172069D03*
X0128559Y0137069D03*
X0123441Y0137069D03*
X0068559Y0097069D03*
X0063441Y0097069D03*
D13*
X0142339Y0152345D03*
X0142339Y0161794D03*
X0159661Y0161794D03*
X0159661Y0152345D03*
D14*
X0115213Y0112975D03*
X0115213Y0111006D03*
X0115213Y0109038D03*
X0115213Y0107069D03*
X0115213Y0105101D03*
X0115213Y0103132D03*
X0115213Y0101164D03*
X0096787Y0101164D03*
X0096787Y0103132D03*
X0096787Y0105101D03*
X0096787Y0107069D03*
X0096787Y0109038D03*
X0096787Y0111006D03*
X0096787Y0112975D03*
D15*
X0100094Y0116282D03*
X0102063Y0116282D03*
X0104031Y0116282D03*
X0106000Y0116282D03*
X0107969Y0116282D03*
X0109937Y0116282D03*
X0111906Y0116282D03*
X0111906Y0097857D03*
X0109937Y0097857D03*
X0107969Y0097857D03*
X0106000Y0097857D03*
X0104031Y0097857D03*
X0102063Y0097857D03*
X0100094Y0097857D03*
M02*
