%
M48
M72
T01C0.0400
T02C0.0500
T03C0.0700
%
T01
X3100Y10207
X3100Y11207
X3100Y12207
X3100Y13207
X7100Y19207
X8100Y19207
X9100Y19207
X10100Y19207
X11100Y19207
X12100Y19207
X13100Y19207
X16600Y13207
X16600Y12207
X16600Y11207
X16600Y10207
X16600Y9207
X16600Y8207
X16600Y7207
X16600Y6207
X14100Y5707
X13100Y5707
X12100Y5707
X11100Y5707
X10100Y5707
T02
X6100Y4707
T03
X5096Y3703
X5096Y5711
X7104Y5711
X7104Y3703
M30
