G75*
%MOIN*%
%OFA0B0*%
%FSLAX25Y25*%
%IPPOS*%
%LPD*%
%AMOC8*
5,1,8,0,0,1.08239X$1,22.5*
%
%ADD10C,0.00000*%
%ADD11R,0.04343X0.03556*%
%ADD12R,0.03556X0.04343*%
%ADD13R,0.08280X0.06312*%
%ADD14C,0.06800*%
%ADD15R,0.04540X0.01981*%
%ADD16R,0.01981X0.04540*%
%ADD17R,0.10800X0.05800*%
%ADD18C,0.08300*%
%ADD19C,0.11300*%
D10*
X0001000Y0017069D02*
X0001000Y0212030D01*
X0234701Y0212030D01*
X0234701Y0017069D01*
X0001000Y0017069D01*
D11*
X0196000Y0139510D03*
X0196000Y0144628D03*
X0216000Y0144628D03*
X0216000Y0139510D03*
D12*
X0203559Y0172069D03*
X0198441Y0172069D03*
X0128559Y0137069D03*
X0123441Y0137069D03*
X0068559Y0097069D03*
X0063441Y0097069D03*
D13*
X0142339Y0152345D03*
X0142339Y0161794D03*
X0159661Y0161794D03*
X0159661Y0152345D03*
D14*
X0163000Y0132069D02*
X0169000Y0132069D01*
X0169000Y0122069D02*
X0163000Y0122069D01*
X0163000Y0112069D02*
X0169000Y0112069D01*
X0169000Y0102069D02*
X0163000Y0102069D01*
X0163000Y0092069D02*
X0169000Y0092069D01*
X0169000Y0082069D02*
X0163000Y0082069D01*
X0163000Y0072069D02*
X0169000Y0072069D01*
X0169000Y0062069D02*
X0163000Y0062069D01*
X0141000Y0060069D02*
X0141000Y0054069D01*
X0131000Y0054069D02*
X0131000Y0060069D01*
X0121000Y0060069D02*
X0121000Y0054069D01*
X0111000Y0054069D02*
X0111000Y0060069D01*
X0101000Y0060069D02*
X0101000Y0054069D01*
X0034000Y0102069D02*
X0028000Y0102069D01*
X0028000Y0112069D02*
X0034000Y0112069D01*
X0034000Y0122069D02*
X0028000Y0122069D01*
X0028000Y0132069D02*
X0034000Y0132069D01*
X0071000Y0189069D02*
X0071000Y0195069D01*
X0081000Y0195069D02*
X0081000Y0189069D01*
X0091000Y0189069D02*
X0091000Y0195069D01*
X0101000Y0195069D02*
X0101000Y0189069D01*
X0111000Y0189069D02*
X0111000Y0195069D01*
X0121000Y0195069D02*
X0121000Y0189069D01*
X0131000Y0189069D02*
X0131000Y0195069D01*
D15*
X0115213Y0112975D03*
X0115213Y0111006D03*
X0115213Y0109038D03*
X0115213Y0107069D03*
X0115213Y0105101D03*
X0115213Y0103132D03*
X0115213Y0101164D03*
X0096787Y0101164D03*
X0096787Y0103132D03*
X0096787Y0105101D03*
X0096787Y0107069D03*
X0096787Y0109038D03*
X0096787Y0111006D03*
X0096787Y0112975D03*
D16*
X0100094Y0116282D03*
X0102063Y0116282D03*
X0104031Y0116282D03*
X0106000Y0116282D03*
X0107969Y0116282D03*
X0109937Y0116282D03*
X0111906Y0116282D03*
X0111906Y0097857D03*
X0109937Y0097857D03*
X0107969Y0097857D03*
X0106000Y0097857D03*
X0104031Y0097857D03*
X0102063Y0097857D03*
X0100094Y0097857D03*
D17*
X0106000Y0104569D03*
D18*
X0061000Y0047069D03*
D19*
X0050961Y0057108D03*
X0050961Y0037030D03*
X0071039Y0037030D03*
X0071039Y0057108D03*
M02*
