G75*
%MOIN*%
%OFA0B0*%
%FSLAX25Y25*%
%IPPOS*%
%LPD*%
%AMOC8*
5,1,8,0,0,1.08239X$1,22.5*
%
%ADD10C,0.03543*%
%ADD11C,0.07500*%
%ADD12C,0.10500*%
%ADD13C,0.05906*%
%ADD14OC8,0.05906*%
%ADD15C,0.06600*%
%ADD16C,0.06000*%
%ADD17C,0.02700*%
%ADD18C,0.01000*%
D10*
X0019364Y0125251D03*
X0025466Y0127810D03*
X0018182Y0130369D03*
X0025466Y0132928D03*
X0019364Y0135487D03*
D11*
X0413104Y0033869D03*
D12*
X0423143Y0043908D03*
X0403065Y0043908D03*
X0403065Y0023830D03*
X0423143Y0023830D03*
D13*
X0031604Y0040369D03*
D14*
X0021604Y0040369D03*
X0021604Y0050369D03*
X0031604Y0050369D03*
X0031604Y0060369D03*
X0021604Y0060369D03*
X0021604Y0070369D03*
X0031604Y0070369D03*
X0031604Y0080369D03*
X0021604Y0080369D03*
D15*
X0109104Y0022369D03*
X0119104Y0022369D03*
X0129104Y0022369D03*
X0139104Y0022369D03*
X0149104Y0022369D03*
X0159104Y0022369D03*
D16*
X0296604Y0021369D02*
X0302604Y0021369D01*
X0303604Y0031369D02*
X0297604Y0031369D01*
X0296604Y0041369D02*
X0302604Y0041369D01*
X0303604Y0051369D02*
X0297604Y0051369D01*
X0296604Y0061369D02*
X0302604Y0061369D01*
X0303604Y0071369D02*
X0297604Y0071369D01*
X0296604Y0081369D02*
X0302604Y0081369D01*
X0303604Y0091369D02*
X0297604Y0091369D01*
X0296604Y0101369D02*
X0302604Y0101369D01*
X0303604Y0111369D02*
X0297604Y0111369D01*
X0296604Y0121369D02*
X0302604Y0121369D01*
X0303604Y0131369D02*
X0297604Y0131369D01*
X0296604Y0141369D02*
X0302604Y0141369D01*
X0303604Y0151369D02*
X0297604Y0151369D01*
D17*
X0283104Y0141369D03*
X0271604Y0131369D03*
X0265604Y0122869D03*
X0279104Y0110869D03*
X0289604Y0099369D03*
X0274604Y0092869D03*
X0259604Y0092369D03*
X0255104Y0096369D03*
X0244604Y0087869D03*
X0247104Y0078369D03*
X0243104Y0072869D03*
X0243104Y0069369D03*
X0248104Y0064869D03*
X0256604Y0062369D03*
X0248604Y0058869D03*
X0253104Y0053369D03*
X0230604Y0053869D03*
X0230604Y0048869D03*
X0225604Y0046369D03*
X0218104Y0046369D03*
X0197104Y0042369D03*
X0196104Y0045869D03*
X0183104Y0041869D03*
X0183604Y0037369D03*
X0187604Y0037369D03*
X0184104Y0031869D03*
X0179604Y0027369D03*
X0174604Y0027369D03*
X0170604Y0030369D03*
X0168104Y0032869D03*
X0162104Y0027869D03*
X0157604Y0038869D03*
X0164104Y0048369D03*
X0169104Y0048869D03*
X0173104Y0048869D03*
X0175604Y0049869D03*
X0178104Y0048369D03*
X0178604Y0052869D03*
X0178604Y0056369D03*
X0178604Y0059869D03*
X0179104Y0064369D03*
X0179104Y0067869D03*
X0179104Y0071869D03*
X0177104Y0076369D03*
X0177104Y0080369D03*
X0177604Y0083869D03*
X0177604Y0087869D03*
X0177604Y0091369D03*
X0177604Y0095369D03*
X0177604Y0098869D03*
X0184604Y0103369D03*
X0193604Y0097869D03*
X0193604Y0094869D03*
X0190604Y0094869D03*
X0216604Y0096369D03*
X0220104Y0093869D03*
X0219604Y0090369D03*
X0233604Y0102369D03*
X0273104Y0078369D03*
X0274104Y0074869D03*
X0265604Y0069369D03*
X0260604Y0071869D03*
X0268604Y0066369D03*
X0282104Y0055369D03*
X0223104Y0063869D03*
X0215604Y0058869D03*
X0224104Y0033869D03*
X0217104Y0032869D03*
X0214104Y0032869D03*
X0224104Y0030869D03*
X0118604Y0049869D03*
X0116604Y0047869D03*
X0103104Y0052869D03*
X0102104Y0049869D03*
X0102104Y0046869D03*
X0102604Y0043869D03*
X0081104Y0044869D03*
X0077604Y0036869D03*
X0085104Y0054369D03*
X0090104Y0058869D03*
X0117604Y0075369D03*
X0106604Y0081869D03*
X0100604Y0080869D03*
X0084604Y0081369D03*
X0081104Y0084869D03*
X0076604Y0081369D03*
X0089104Y0090869D03*
X0093104Y0093869D03*
X0099104Y0095369D03*
X0102604Y0091369D03*
X0117104Y0093869D03*
X0127604Y0095369D03*
X0123604Y0110369D03*
X0123604Y0113369D03*
X0123604Y0116369D03*
X0141104Y0115369D03*
X0137604Y0109369D03*
X0160104Y0112869D03*
X0160604Y0119369D03*
X0169604Y0119369D03*
X0172604Y0126369D03*
X0177104Y0131369D03*
X0139604Y0137369D03*
X0135104Y0132869D03*
X0111604Y0127869D03*
X0100604Y0129369D03*
X0100104Y0125869D03*
X0097104Y0124369D03*
X0072604Y0113369D03*
X0069104Y0125869D03*
X0043104Y0115869D03*
X0040104Y0114869D03*
X0040604Y0117869D03*
X0039604Y0139869D03*
X0040104Y0144869D03*
X0040104Y0148369D03*
X0043604Y0148869D03*
X0047104Y0148869D03*
X0049104Y0145369D03*
X0065604Y0140369D03*
X0070604Y0140369D03*
X0079604Y0145369D03*
X0083104Y0143369D03*
X0084604Y0138869D03*
X0087604Y0138869D03*
X0077604Y0148869D03*
X0074604Y0149869D03*
X0071604Y0148869D03*
X0100104Y0156369D03*
X0100104Y0159369D03*
X0103104Y0162369D03*
X0106104Y0162369D03*
X0114104Y0150369D03*
X0026104Y0151869D03*
X0022604Y0151869D03*
X0019104Y0151869D03*
X0159604Y0099869D03*
X0321104Y0099869D03*
X0326104Y0101369D03*
X0341604Y0100369D03*
X0342604Y0103369D03*
X0355604Y0105369D03*
X0356104Y0110369D03*
X0371604Y0107369D03*
X0382604Y0110369D03*
X0387604Y0110869D03*
X0395104Y0111369D03*
X0392604Y0105869D03*
X0398604Y0097369D03*
X0386604Y0089869D03*
X0383104Y0089869D03*
X0379104Y0089869D03*
X0362104Y0088369D03*
X0366104Y0095369D03*
X0344604Y0088369D03*
X0344604Y0083869D03*
X0394604Y0084369D03*
X0409604Y0086369D03*
X0400104Y0070869D03*
X0393604Y0065869D03*
X0375104Y0059369D03*
X0410104Y0117369D03*
X0410104Y0122369D03*
X0414604Y0123369D03*
X0417604Y0123369D03*
X0417604Y0126369D03*
X0414604Y0126369D03*
X0430104Y0130369D03*
X0433104Y0130369D03*
X0433104Y0133369D03*
X0430104Y0133369D03*
X0386604Y0132869D03*
X0381104Y0132869D03*
X0366104Y0130369D03*
X0340604Y0130369D03*
X0336104Y0125869D03*
X0367604Y0142869D03*
D18*
X0033104Y0028869D02*
X0021604Y0040369D01*
X0027104Y0044869D02*
X0043604Y0044869D01*
X0056104Y0032369D01*
X0106604Y0032369D01*
X0110604Y0036369D01*
X0177604Y0036369D01*
X0183104Y0041869D01*
X0184104Y0044369D02*
X0186604Y0041869D01*
X0196604Y0041869D01*
X0197104Y0042369D01*
X0194104Y0043869D02*
X0196104Y0045869D01*
X0194104Y0043869D02*
X0187604Y0043869D01*
X0185104Y0046369D01*
X0181104Y0046369D01*
X0179104Y0044369D01*
X0170604Y0044369D01*
X0169104Y0046369D01*
X0169104Y0048869D01*
X0164104Y0048369D02*
X0164104Y0043369D01*
X0166104Y0041369D01*
X0179104Y0041369D01*
X0182104Y0044369D01*
X0184104Y0044369D01*
X0178604Y0052869D02*
X0205604Y0052369D01*
X0216604Y0041369D01*
X0283104Y0041369D01*
X0285604Y0043869D01*
X0285604Y0148369D01*
X0288604Y0151369D01*
X0300604Y0151369D01*
X0283104Y0141369D02*
X0282104Y0140369D01*
X0282104Y0055369D01*
X0256604Y0062369D02*
X0256604Y0094869D01*
X0255104Y0096369D01*
X0251604Y0098869D02*
X0251604Y0090869D01*
X0253104Y0089369D01*
X0253104Y0053369D01*
X0248604Y0058869D02*
X0247604Y0059869D01*
X0238604Y0059869D01*
X0231104Y0067369D01*
X0218604Y0067369D01*
X0207604Y0056369D01*
X0178604Y0056369D01*
X0178604Y0059869D02*
X0207604Y0059869D01*
X0217604Y0069369D01*
X0233604Y0069369D01*
X0240104Y0062869D01*
X0246104Y0062869D01*
X0248104Y0064869D01*
X0243104Y0069369D02*
X0240604Y0071869D01*
X0196104Y0071869D01*
X0188104Y0064369D01*
X0179104Y0064369D01*
X0179104Y0067869D02*
X0191604Y0072369D01*
X0193604Y0074369D01*
X0241604Y0074369D01*
X0243104Y0072869D01*
X0247104Y0078369D02*
X0191604Y0078369D01*
X0188604Y0075369D01*
X0179104Y0071869D01*
X0177104Y0076369D02*
X0188104Y0077369D01*
X0190604Y0080369D01*
X0213104Y0080369D01*
X0221604Y0087369D01*
X0238604Y0087369D01*
X0244604Y0087869D01*
X0259604Y0092369D02*
X0259604Y0072869D01*
X0260604Y0071869D01*
X0265604Y0069369D02*
X0265604Y0122869D01*
X0268604Y0128369D02*
X0271604Y0131369D01*
X0268604Y0128369D02*
X0268604Y0066369D01*
X0274104Y0074869D02*
X0276604Y0074869D01*
X0278104Y0076369D01*
X0278104Y0109869D01*
X0279104Y0110869D01*
X0289604Y0099369D02*
X0289604Y0035869D01*
X0294104Y0031369D01*
X0300604Y0031369D01*
X0230604Y0048869D02*
X0230604Y0053869D01*
X0218104Y0056369D02*
X0215604Y0058869D01*
X0218104Y0056369D02*
X0218104Y0046369D01*
X0225604Y0046369D02*
X0225604Y0061369D01*
X0223104Y0063869D01*
X0177104Y0080369D02*
X0133104Y0080369D01*
X0127604Y0075869D01*
X0122604Y0075869D01*
X0122104Y0075369D01*
X0117604Y0075369D01*
X0106604Y0081869D02*
X0099104Y0089369D01*
X0099104Y0095369D01*
X0093104Y0093869D02*
X0093104Y0088369D01*
X0100604Y0080869D01*
X0084604Y0081369D02*
X0084604Y0054869D01*
X0085104Y0054369D01*
X0090104Y0058869D02*
X0089104Y0061369D01*
X0089104Y0090869D01*
X0081104Y0084869D02*
X0081104Y0044869D01*
X0076604Y0037869D02*
X0077604Y0036869D01*
X0076604Y0037869D02*
X0076604Y0081369D01*
X0027104Y0044869D02*
X0021604Y0050369D01*
X0033104Y0028869D02*
X0106604Y0028869D01*
X0110604Y0032869D01*
X0168104Y0032869D01*
X0162104Y0027869D02*
X0110604Y0027869D01*
X0109104Y0026369D01*
X0109104Y0022369D01*
X0113104Y0038869D02*
X0157604Y0038869D01*
X0113104Y0038869D02*
X0112604Y0039369D01*
X0112604Y0126869D01*
X0111604Y0127869D01*
X0177604Y0098869D02*
X0183604Y0098869D01*
X0185104Y0100369D01*
X0186604Y0100369D01*
X0188104Y0101869D01*
X0233104Y0101869D01*
X0233604Y0102369D01*
X0216604Y0096369D02*
X0210104Y0089869D01*
X0186104Y0089869D01*
X0185104Y0090869D01*
X0177604Y0091369D01*
X0177604Y0087869D02*
X0182604Y0088369D01*
X0184604Y0086369D01*
X0210104Y0086369D01*
X0220104Y0093869D01*
X0219604Y0090369D02*
X0211104Y0083869D01*
X0210104Y0082869D01*
X0183604Y0082869D01*
X0182604Y0083369D01*
X0182104Y0083369D01*
X0179104Y0083869D01*
X0177604Y0083869D01*
X0189104Y0091869D02*
X0207604Y0091869D01*
X0215104Y0098869D01*
X0251604Y0098869D01*
X0273104Y0091369D02*
X0274604Y0092869D01*
X0273104Y0091369D02*
X0273104Y0078369D01*
X0189104Y0091869D02*
X0185604Y0095369D01*
X0177604Y0095369D01*
X0355604Y0105369D02*
X0368604Y0105369D01*
X0374604Y0098869D01*
X0397104Y0098869D01*
X0398604Y0097369D01*
X0392604Y0105869D02*
X0373604Y0105869D01*
X0371604Y0107369D01*
X0387604Y0110869D02*
X0392104Y0111369D01*
X0395104Y0111369D01*
X0366104Y0130369D02*
X0366104Y0141369D01*
X0367604Y0142869D01*
M02*
