%
M48
M72
T01C0.01300
T02C0.02000
T03C0.03937
T04C0.04000
T05C0.05000
T06C0.07000
%
T01
X77604Y36869
X81104Y44869
X102104Y46869
X102104Y49869
X103104Y52869
X116604Y47869
X118604Y49869
X102604Y43869
X85104Y54369
X90104Y58869
X117604Y75369
X106604Y81869
X100604Y80869
X84604Y81369
X81104Y84869
X76604Y81369
X89104Y90869
X93104Y93869
X99104Y95369
X102604Y91369
X117104Y93869
X127604Y95369
X123604Y110369
X123604Y113369
X123604Y116369
X141104Y115369
X137604Y109369
X160104Y112869
X160604Y119369
X169604Y119369
X172604Y126369
X177104Y131369
X139604Y137369
X135104Y132869
X111604Y127869
X100604Y129369
X100104Y125869
X97104Y124369
X72604Y113369
X69104Y125869
X43104Y115869
X40104Y114869
X40604Y117869
X39604Y139869
X40104Y144869
X40104Y148369
X43604Y148869
X47104Y148869
X49104Y145369
X65604Y140369
X70604Y140369
X79604Y145369
X83104Y143369
X84604Y138869
X87604Y138869
X77604Y148869
X74604Y149869
X71604Y148869
X100104Y156369
X100104Y159369
X103104Y162369
X106104Y162369
X114104Y150369
X26104Y151869
X22604Y151869
X19104Y151869
X159604Y99869
X177604Y98869
X177604Y95369
X177604Y91369
X177604Y87869
X177604Y83869
X177104Y80369
X177104Y76369
X179104Y71869
X179104Y67869
X179104Y64369
X178604Y59869
X178604Y56369
X178604Y52869
X175604Y49869
X173104Y48869
X169104Y48869
X164104Y48369
X178104Y48369
X183104Y41869
X183604Y37369
X187604Y37369
X184104Y31869
X179604Y27369
X174604Y27369
X170604Y30369
X168104Y32869
X162104Y27869
X157604Y38869
X196104Y45869
X197104Y42369
X218104Y46369
X225604Y46369
X230604Y48869
X230604Y53869
X215604Y58869
X223104Y63869
X243104Y69369
X243104Y72869
X247104Y78369
X260604Y71869
X265604Y69369
X268604Y66369
X256604Y62369
X248604Y58869
X248104Y64869
X274104Y74869
X273104Y78369
X244604Y87869
X259604Y92369
X255104Y96369
X274604Y92869
X289604Y99369
X279104Y110869
X265604Y122869
X271604Y131369
X283104Y141369
X336104Y125869
X340604Y130369
X366104Y130369
X381104Y132869
X386604Y132869
X367604Y142869
X414604Y126369
X417604Y126369
X417604Y123369
X414604Y123369
X410104Y122369
X410104Y117369
X395104Y111369
X387604Y110869
X382604Y110369
X371604Y107369
X356104Y110369
X355604Y105369
X342604Y103369
X341604Y100369
X326104Y101369
X321104Y99869
X344604Y88369
X344604Y83869
X362104Y88369
X379104Y89869
X383104Y89869
X386604Y89869
X394604Y84369
X409604Y86369
X398604Y97369
X392604Y105869
X366104Y95369
X400104Y70869
X393604Y65869
X375104Y59369
X282104Y55369
X253104Y53369
X224104Y33869
X217104Y32869
X214104Y32869
X224104Y30869
X219604Y90369
X220104Y93869
X216604Y96369
X233604Y102369
X193604Y97869
X193604Y94869
X190604Y94869
X184604Y103369
X430104Y130369
X433104Y130369
X433104Y133369
X430104Y133369
T02
X25466Y132928
X18182Y130369
X25466Y127810
X19364Y125251
X19364Y135487
T03
X21604Y80369
X31604Y80369
X31604Y70369
X21604Y70369
X21604Y60369
X31604Y60369
X31604Y50369
X21604Y50369
X21604Y40369
X31604Y40369
X109104Y22369
X119104Y22369
X129104Y22369
X139104Y22369
X149104Y22369
X159104Y22369
T04
X299604Y21369
X300604Y31369
X299604Y41369
X300604Y51369
X299604Y61369
X300604Y71369
X299604Y81369
X300604Y91369
X299604Y101369
X300604Y111369
X299604Y121369
X300604Y131369
X299604Y141369
X300604Y151369
T05
X413104Y33869
T06
X423143Y43908
X403065Y43908
X403065Y23830
X423143Y23830
M30
